<svg width="620" height="528" viewBox="0 0 620 528" fill="none" xmlns="http://www.w3.org/2000/svg">
<g clip-path="url(#clip0)">
<rect width="620" height="528" rx="16" fill="#0D1117"/>
<g opacity="0.3" filter="url(#filter0_f)">
<path opacity="0.3" d="M310 64L560 464H60L310 64Z" fill="#BA84FF" fill-opacity="0.3"/>
</g>
<path d="M310 64L560 464H60L310 64Z" stroke="url(#paint0_linear)"/>
<path d="M310 64L560 464H60L310 64Z" stroke="url(#paint1_linear)"/>
<path d="M310 64L560 464H60L310 64Z" stroke="url(#paint2_linear)"/>
<path d="M291.772 422.188C294.264 422.188 295.936 420.945 296.452 418.719H295.03C294.623 420.094 293.436 420.891 291.78 420.891C289.553 420.891 288.139 419.125 288.139 416.359C288.139 413.617 289.569 411.836 291.772 411.836C293.381 411.836 294.67 412.805 295.03 414.281H296.452C296.092 412.031 294.225 410.539 291.772 410.539C288.686 410.539 286.694 412.82 286.694 416.359C286.694 419.93 288.663 422.188 291.772 422.188ZM304.473 410.539C301.278 410.539 299.278 412.789 299.278 416.367C299.278 419.945 301.278 422.188 304.473 422.188C307.669 422.188 309.669 419.945 309.669 416.367C309.669 412.789 307.669 410.539 304.473 410.539ZM304.473 411.836C306.778 411.836 308.223 413.586 308.223 416.367C308.223 419.141 306.778 420.891 304.473 420.891C302.169 420.891 300.723 419.141 300.723 416.367C300.723 413.586 302.169 411.836 304.473 411.836ZM314.425 411.977H317.058C318.511 411.977 319.386 412.781 319.386 414.133C319.386 415.516 318.566 416.297 317.12 416.297H314.425V411.977ZM314.425 417.539H317.12L319.534 422H321.183L318.573 417.32C319.988 416.875 320.839 415.656 320.839 414.086C320.839 412.055 319.417 410.727 317.245 410.727H313.019V422H314.425V417.539ZM331.197 420.734H325.619V416.859H330.908V415.609H325.619V411.992H331.197V410.727H324.213V422H331.197V420.734Z" fill="white" fill-opacity="0.84"/>
<path d="M291.772 422.188C294.264 422.188 295.936 420.945 296.452 418.719H295.03C294.623 420.094 293.436 420.891 291.78 420.891C289.553 420.891 288.139 419.125 288.139 416.359C288.139 413.617 289.569 411.836 291.772 411.836C293.381 411.836 294.67 412.805 295.03 414.281H296.452C296.092 412.031 294.225 410.539 291.772 410.539C288.686 410.539 286.694 412.82 286.694 416.359C286.694 419.93 288.663 422.188 291.772 422.188ZM304.473 410.539C301.278 410.539 299.278 412.789 299.278 416.367C299.278 419.945 301.278 422.188 304.473 422.188C307.669 422.188 309.669 419.945 309.669 416.367C309.669 412.789 307.669 410.539 304.473 410.539ZM304.473 411.836C306.778 411.836 308.223 413.586 308.223 416.367C308.223 419.141 306.778 420.891 304.473 420.891C302.169 420.891 300.723 419.141 300.723 416.367C300.723 413.586 302.169 411.836 304.473 411.836ZM314.425 411.977H317.058C318.511 411.977 319.386 412.781 319.386 414.133C319.386 415.516 318.566 416.297 317.12 416.297H314.425V411.977ZM314.425 417.539H317.12L319.534 422H321.183L318.573 417.32C319.988 416.875 320.839 415.656 320.839 414.086C320.839 412.055 319.417 410.727 317.245 410.727H313.019V422H314.425V417.539ZM331.197 420.734H325.619V416.859H330.908V415.609H325.619V411.992H331.197V410.727H324.213V422H331.197V420.734Z" fill="url(#paint3_linear)" fill-opacity="0.84"/>
<path d="M255.93 327V315.727H254.523V327H255.93ZM261.108 327V318.18H261.178L267.35 327H268.717V315.727H267.327V324.578H267.256L261.084 315.727H259.717V327H261.108ZM276.763 327V316.992H280.317V315.727H271.802V316.992H275.356V327H276.763ZM290.386 325.734H284.808V321.859H290.097V320.609H284.808V316.992H290.386V315.727H283.402V327H290.386V325.734ZM303.353 322.336V321.266H298.767V322.5H301.947V322.703C301.947 324.594 300.572 325.891 298.572 325.891C296.275 325.891 294.853 324.133 294.853 321.297C294.853 318.508 296.252 316.836 298.572 316.836C300.158 316.836 301.338 317.703 301.806 319.227H303.283C302.861 316.984 301.009 315.539 298.572 315.539C295.416 315.539 293.408 317.781 293.408 321.305C293.408 324.891 295.423 327.188 298.572 327.188C301.58 327.188 303.353 325.383 303.353 322.336ZM308.164 316.977H310.797C312.25 316.977 313.125 317.781 313.125 319.133C313.125 320.516 312.305 321.297 310.859 321.297H308.164V316.977ZM308.164 322.539H310.859L313.273 327H314.922L312.312 322.32C313.727 321.875 314.578 320.656 314.578 319.086C314.578 317.055 313.156 315.727 310.984 315.727H306.758V327H308.164V322.539ZM325.28 327H326.756L322.6 315.727H321.209L317.053 327H318.53L319.662 323.773H324.147L325.28 327ZM321.881 317.438H321.928L323.733 322.578H320.077L321.881 317.438ZM332.341 327V316.992H335.895V315.727H327.38V316.992H330.934V327H332.341ZM340.386 327V315.727H338.98V327H340.386ZM348.931 315.539C345.736 315.539 343.736 317.789 343.736 321.367C343.736 324.945 345.736 327.188 348.931 327.188C352.127 327.188 354.127 324.945 354.127 321.367C354.127 317.789 352.127 315.539 348.931 315.539ZM348.931 316.836C351.236 316.836 352.681 318.586 352.681 321.367C352.681 324.141 351.236 325.891 348.931 325.891C346.627 325.891 345.181 324.141 345.181 321.367C345.181 318.586 346.627 316.836 348.931 316.836ZM358.867 327V318.18H358.938L365.109 327H366.477V315.727H365.086V324.578H365.016L358.844 315.727H357.477V327H358.867Z" fill="white" fill-opacity="0.84"/>
<path d="M255.93 327V315.727H254.523V327H255.93ZM261.108 327V318.18H261.178L267.35 327H268.717V315.727H267.327V324.578H267.256L261.084 315.727H259.717V327H261.108ZM276.763 327V316.992H280.317V315.727H271.802V316.992H275.356V327H276.763ZM290.386 325.734H284.808V321.859H290.097V320.609H284.808V316.992H290.386V315.727H283.402V327H290.386V325.734ZM303.353 322.336V321.266H298.767V322.5H301.947V322.703C301.947 324.594 300.572 325.891 298.572 325.891C296.275 325.891 294.853 324.133 294.853 321.297C294.853 318.508 296.252 316.836 298.572 316.836C300.158 316.836 301.338 317.703 301.806 319.227H303.283C302.861 316.984 301.009 315.539 298.572 315.539C295.416 315.539 293.408 317.781 293.408 321.305C293.408 324.891 295.423 327.188 298.572 327.188C301.58 327.188 303.353 325.383 303.353 322.336ZM308.164 316.977H310.797C312.25 316.977 313.125 317.781 313.125 319.133C313.125 320.516 312.305 321.297 310.859 321.297H308.164V316.977ZM308.164 322.539H310.859L313.273 327H314.922L312.312 322.32C313.727 321.875 314.578 320.656 314.578 319.086C314.578 317.055 313.156 315.727 310.984 315.727H306.758V327H308.164V322.539ZM325.28 327H326.756L322.6 315.727H321.209L317.053 327H318.53L319.662 323.773H324.147L325.28 327ZM321.881 317.438H321.928L323.733 322.578H320.077L321.881 317.438ZM332.341 327V316.992H335.895V315.727H327.38V316.992H330.934V327H332.341ZM340.386 327V315.727H338.98V327H340.386ZM348.931 315.539C345.736 315.539 343.736 317.789 343.736 321.367C343.736 324.945 345.736 327.188 348.931 327.188C352.127 327.188 354.127 324.945 354.127 321.367C354.127 317.789 352.127 315.539 348.931 315.539ZM348.931 316.836C351.236 316.836 352.681 318.586 352.681 321.367C352.681 324.141 351.236 325.891 348.931 325.891C346.627 325.891 345.181 324.141 345.181 321.367C345.181 318.586 346.627 316.836 348.931 316.836ZM358.867 327V318.18H358.938L365.109 327H366.477V315.727H365.086V324.578H365.016L358.844 315.727H357.477V327H358.867Z" fill="url(#paint4_linear)" fill-opacity="0.84"/>
<path d="M257.694 217V212.117H262.686V210.867H257.694V206.992H263.131V205.727H256.287V217H257.694ZM267.747 206.977H270.38C271.833 206.977 272.708 207.781 272.708 209.133C272.708 210.516 271.887 211.297 270.442 211.297H267.747V206.977ZM267.747 212.539H270.442L272.856 217H274.505L271.895 212.32C273.309 211.875 274.161 210.656 274.161 209.086C274.161 207.055 272.739 205.727 270.567 205.727H266.341V217H267.747V212.539ZM284.862 217H286.339L282.183 205.727H280.792L276.636 217H278.112L279.245 213.773H283.73L284.862 217ZM281.464 207.438H281.511L283.316 212.578H279.659L281.464 207.438ZM300.337 217V205.727H298.705L294.814 215.211H294.752L290.861 205.727H289.228V217H290.541V208.312H290.595L294.189 217H295.377L298.97 208.312H299.025V217H300.337ZM311.109 215.734H305.531V211.859H310.82V210.609H305.531V206.992H311.109V205.727H304.125V217H311.109V215.734ZM320.827 208.055H320.905L323.506 217H324.834L327.905 205.727H326.436L324.178 214.93H324.116L321.577 205.727H320.155L317.616 214.93H317.553L315.295 205.727H313.827L316.897 217H318.225L320.827 208.055ZM335.317 205.539C332.122 205.539 330.122 207.789 330.122 211.367C330.122 214.945 332.122 217.188 335.317 217.188C338.512 217.188 340.512 214.945 340.512 211.367C340.512 207.789 338.512 205.539 335.317 205.539ZM335.317 206.836C337.622 206.836 339.067 208.586 339.067 211.367C339.067 214.141 337.622 215.891 335.317 215.891C333.012 215.891 331.567 214.141 331.567 211.367C331.567 208.586 333.012 206.836 335.317 206.836ZM345.269 206.977H347.902C349.355 206.977 350.23 207.781 350.23 209.133C350.23 210.516 349.409 211.297 347.964 211.297H345.269V206.977ZM345.269 212.539H347.964L350.378 217H352.027L349.417 212.32C350.831 211.875 351.683 210.656 351.683 209.086C351.683 207.055 350.261 205.727 348.089 205.727H343.862V217H345.269V212.539ZM356.463 217V213.062L357.681 211.719L361.908 217H363.705L358.658 210.719L363.291 205.727H361.517L356.541 211.227H356.463V205.727H355.056V217H356.463Z" fill="url(#paint5_linear)" fill-opacity="0.84"/>
<path d="M120 368.5H500" stroke="url(#paint6_linear)"/>
<path d="M179 273.5H441" stroke="url(#paint7_linear)"/>
</g>
<defs>
<filter id="filter0_f" x="-13" y="-9" width="646" height="546" filterUnits="userSpaceOnUse" color-interpolation-filters="sRGB">
<feFlood flood-opacity="0" result="BackgroundImageFix"/>
<feBlend mode="normal" in="SourceGraphic" in2="BackgroundImageFix" result="shape"/>
<feGaussianBlur stdDeviation="36.5" result="effect1_foregroundBlur"/>
</filter>
<linearGradient id="paint0_linear" x1="91.579" y1="87.558" x2="450.413" y2="576.418" gradientUnits="userSpaceOnUse">
<stop stop-color="#AC83FD"/>
<stop offset="1" stop-color="#E63048" stop-opacity="0"/>
</linearGradient>
<linearGradient id="paint1_linear" x1="310" y1="64" x2="310" y2="464" gradientUnits="userSpaceOnUse">
<stop stop-color="#B0E6FD"/>
<stop offset="1" stop-color="#6D3CF8" stop-opacity="0"/>
</linearGradient>
<linearGradient id="paint2_linear" x1="310" y1="64" x2="310" y2="464" gradientUnits="userSpaceOnUse">
<stop stop-color="#B0E6FD"/>
<stop offset="0.802" stop-color="#6D3CF8" stop-opacity="0"/>
</linearGradient>
<linearGradient id="paint3_linear" x1="304.147" y1="399" x2="341.929" y2="408.75" gradientUnits="userSpaceOnUse">
<stop stop-color="white"/>
<stop offset="1" stop-color="#ADDFFD"/>
</linearGradient>
<linearGradient id="paint4_linear" x1="298.367" y1="304" x2="369.503" y2="349.895" gradientUnits="userSpaceOnUse">
<stop stop-color="white"/>
<stop offset="1" stop-color="#ADDFFD"/>
</linearGradient>
<linearGradient id="paint5_linear" x1="298" y1="194" x2="367.5" y2="236.5" gradientUnits="userSpaceOnUse">
<stop stop-color="white"/>
<stop offset="1" stop-color="#ADDFFD"/>
</linearGradient>
<linearGradient id="paint6_linear" x1="334" y1="369.059" x2="334.005" y2="370.94" gradientUnits="userSpaceOnUse">
<stop stop-color="#AC83FD" stop-opacity="0.53"/>
<stop offset="0.141" stop-color="#E63048" stop-opacity="0"/>
</linearGradient>
<linearGradient id="paint7_linear" x1="369" y1="274" x2="369.007" y2="276.007" gradientUnits="userSpaceOnUse">
<stop stop-color="#AC83FD" stop-opacity="0.53"/>
<stop offset="0.141" stop-color="#E63048" stop-opacity="0"/>
</linearGradient>
<clipPath id="clip0">
<rect width="620" height="528" rx="16" fill="white"/>
</clipPath>
</defs>
</svg>
