<svg height="600" viewBox="0 0 600 600" width="600" xmlns="http://www.w3.org/2000/svg"><g fill="none"><g transform="translate(388.362125 225.5)"><path d="m129.663111 4.97494445c5.988281 3.17893993 10.882556 8.08475115 14.047389 14.08050005 3.24075 6.07175 4.966666 12.0938333 4.966666 28.6949166v29.1584724c0 .3764008-.227218.7155917-.574986.8595898-.347768.1439974-.748025.0644838-1.014346-.2015068v-.0041389l-10.98875-11.0094441c-.872577-.8743279-1.362349-2.0593074-1.361695-3.2945559v-13.4762221c0-12.4539166-1.295473-16.9694444-3.725-21.5222221-2.374558-4.4963065-6.045972-8.1749302-10.537611-10.5583056-4.492568-2.4121444-8.952718-3.7058782-21.0828118-3.7328473l-18.1662715-.0004305c-.3756488-.0019949-.7133154-.2294932-.8562541-.5768892-.1429393-.3473961-.063158-.746657.2023094-1.0124442l10.98875-11.01358326c.8691665-.87330556 2.0528888-1.36583334 3.2862776-1.36583334h6.1793614c16.567972 0 22.577639 1.73005555 28.636972 4.97494445zm-22.801139 18.30630555c10.264444 0 18.583612 8.3398611 18.583612 18.625v11.7916945c-.001805.3715243-.224268.7064291-.566035.8521299-.341768.1457008-.737439.0746913-1.006744-.1816299l-14.982777-14.3536667c-.993333-.9933333-2.152223-1.7135-3.38975-2.1646389-1.049953-.3977355-2.163517-.6010942-3.286278-.6001389h-44.2281666c-.3764009-.0003311-.7155921-.2272188-.8595897-.5749866s-.0644839-.7480256.2015063-1.0143468l11.0053053-11.0177221c.8691671-.8691667 2.04875-1.3616945 3.2821394-1.3616945z" fill="#e55638"/><path d="m136.322584 80.7497224 10.992888 11.0135829c.869167.8733059 1.361694 2.0611671 1.361694 3.2945559v6.1959168c0 16.601083-1.725916 22.623167-4.966666 28.694917-3.164833 5.995748-8.059108 10.90156-14.047389 14.0805-6.059333 3.24075-12.069 4.970805-28.636972 4.970805h-29.0922502c-.3756482-.001995-.7133148-.229493-.8562541-.576889-.1429387-.347396-.0631574-.746657.20231-1.012445v.004139l10.98875-11.013583c.8691665-.873306 2.0528888-1.365833 3.2862777-1.365833h13.44725c12.4249436 0 16.9280556-1.295473 21.4725556-3.733278 4.491639-2.383375 8.163053-6.061999 10.537611-10.558306 2.429527-4.552777 3.725-9.068305 3.725-21.5222215v-17.8137782c.001977-.374593.22821-.7115379.57418-.8551651.34597-.1436267.744321-.0659744 1.011015.1970822zm-23.227445-23.285389 10.992889 11.0260001c.869167.8733053 1.357556 2.0570277 1.357556 3.2945553v35.3212772c0 10.285139-8.319168 18.625-18.583612 18.625h-11.7668608c-.3715245-.001803-.7064294-.224267-.8521299-.566034-.145701-.341767-.0746914-.737438.1816299-1.006743v-.004139l14.3205548-15.020028c.993334-.993333 1.7135-2.152222 2.164639-3.393888.395575-1.051861.597496-2.166635.596-3.290418v-44.3274994c.000331-.3764008.227219-.715592.574987-.8595896s.748026-.0644838 1.014347.2015064z" fill="#f4c942"/><path d="m1.58519445 71.4330835 10.99702775 11.013583c.8691667.8733059 1.3616944 2.061167 1.3616944 3.2945559v13.4762223c0 12.4539163 1.2913334 16.9694443 3.725 21.5222213 2.3734598 4.495708 6.0433662 8.174267 10.5334723 10.558306 4.5445 2.437806 9.05175 3.733278 21.4766945 3.733278h17.772389c.3771545-.001347.7178802.224926.8629404.573071.1450603.348145.065808.749409-.2007181 1.016263l-10.9970281 11.013582c-.8691666.873306-2.0528888 1.365834-3.2821388 1.365834h-6.1835c-16.5679723 0-22.5735-1.730055-28.6328333-4.974945-5.9898142-3.178275-10.88559628-8.084152-14.05152784-14.0805-3.2083425-6.011032-4.93199684-11.973386-4.96666666-28.200046v-29.6533425c.00197692-.374593.22821046-.7115379.57418043-.8551652.34596997-.1436272.74432086-.0659744 1.01101402.1970822zm23.21916665 23.1984718h-.0041389l14.9910556 14.3536667c.9891944.993333 2.1522222 1.7135 3.3856111 2.164639 1.0181666.389055 2.1273889.600139 3.2862777.600139h44.2281669c.3756482.001995.7133148.229493.8562541.576889.1429388.347396.0631574.746657-.20231 1.012445l-11.0011664 11.017721c-.8691665.869167-2.0528888 1.361695-3.2821388 1.361695h-35.2467779c-4.9341696-.005486-9.664069-1.970839-13.1491728-5.463705-3.4851038-3.492865-5.4399299-8.227126-5.4344614-13.161295v-11.7916947c.0018271-.3715239.2242906-.7064288.5660578-.8521298.3417673-.1457005.7374383-.0746912 1.006743.1816298z" fill="#7b8fea"/><path d="m53.5820555 23.28125c.3715244.0018041.7064292.2242675.85213.5660348s.0746913.7374383-.18163 1.006743l-14.3246944 15.0241667c-.9933333.9933333-1.7093611 2.1522221-2.1605 3.3938889-.3969866 1.0515982-.6003117 2.1663804-.6001389 3.2904166v44.3275c-.0036224.3738416-.2304618.7092767-.5760678.8518505-.3456061.1425738-.7429719.0646438-1.0091266-.1979058l-10.9928889-11.026c-.8700462-.8739886-1.3582121-2.0571953-1.3575569-3.2904171v-35.3212776c0-10.2851389 8.319168-18.625 18.5836125-18.625zm23.1612221-23.28125c.3756483.00199484.7133154.22949315.8562542.57688922.1429393.34739608.0631573.746657-.2023094 1.01244412l-10.98875 11.01358326c-.8733059.8733056-2.0528889 1.3658334-3.2862777 1.3658334h-13.4472502c-12.4249445 0-16.9321945 1.2954722-21.4766945 3.7332778-4.491639 2.3833754-8.1630525 6.0619991-10.5376111 10.5583056-2.4039538 4.5048537-3.6976012 8.9732376-3.7245695 21.1315701l-.0004305 18.20443c-.0019769.374593-.2282105.7115379-.5741804.8551652-.34597.1436272-.7443209.0659744-1.011014-.1970822l-10.98461116-11.0135831c-.87409435-.8736504-1.36583334-2.0587135-1.36583334-3.2945556v-6.1959167c0-16.6010833 1.72591666-22.6231666 4.96666666-28.6949166 3.1648328-5.9957489 8.05910764-10.90156012 14.04738884-14.08050005 5.99874-3.21244 11.9488017-4.94019186 28.139074-4.97494445z" fill="#d97ee8"/></g><g fill="#232129" transform="translate(282.960708 280)"><rect height="8" rx="2" width="40" y="16"/><rect height="8" rx="2" transform="matrix(0 1 -1 0 40 0)" width="40" y="16"/></g><g transform="translate(62.960708 220)"><path d="m142.857 80h-40v11.429h27.429c-4 17.142-16.572 31.428-33.143 37.142l-65.715-65.714c6.858-20 26.286-34.286 48.572-34.286 17.143 0 32.571 8.572 42.286 21.715l8.571-7.429c-11.429-15.427-29.714-25.714-50.857-25.714-29.714 0-54.857 21.143-61.143 49.143l75.429 75.428c27.428-6.857 48.571-32 48.571-61.714zm-125.714.572c0 16 6.286 31.428 18.286 43.428s28 18.286 43.428 18.286z" fill="#fff"/><path d="m80 0c-44 0-80 36-80 80s36 80 80 80 80-36 80-80-36-80-80-80zm-44.571 124.571c-12-12-18.286-28-18.286-43.428l62.286 61.714c-16-.571-32-6.286-44-18.286zm58.285 16.572-74.857-74.857c6.286-28 31.429-49.143 61.143-49.143 21.143 0 39.429 10.286 50.857 25.714l-8.571 7.429c-9.715-13.143-25.143-21.716-42.286-21.716-22.286 0-41.143 14.286-48.571 34.286l65.714 65.714c16.571-5.714 29.143-20 33.143-37.142h-27.429v-11.428h40c0 29.714-21.143 54.857-49.143 61.143z" fill="#639"/></g></g></svg>